<svg id="Слой_1" data-name="Слой 1" xmlns="http://www.w3.org/2000/svg" viewBox="0 0 504 504">
  <defs>
    <style>
      .cls-1 {
        fill: #0a0a0a;
      }
    </style>
  </defs>
  <title>дщдщ3</title>
  <path class="cls-1" d="M342.27,19.65l-.11.17L341,19,117.09,343.08A163.69,163.69,0,0,1,256,92.83V4.5C116.82,4.5,4,117.32,4,256.5A250.93,250.93,0,0,0,64.09,419.8L4,506.77H104.45l23.14-33.42A250.74,250.74,0,0,0,256,508.5c139.18,0,252-112.82,252-252C508,147.63,439,54.88,342.27,19.65ZM256,420.17a162.92,162.92,0,0,1-77.95-19.72L363.26,132.91A163.65,163.65,0,0,1,256,420.17Z" transform="translate(-4 -4.5)"/>
</svg>
